<mxfile host="Electron" modified="2023-08-12T15:00:26.031Z" agent="Mozilla/5.0 (Windows NT 10.0; Win64; x64) AppleWebKit/537.36 (KHTML, like Gecko) draw.io/21.2.8 Chrome/112.0.5615.165 Electron/24.2.0 Safari/537.36" etag="vpsSBYo5_DOxEbQT4rTJ" version="21.2.8" type="device">
  <diagram name="Seite-1" id="PiMtTe8qesnQEUSBRRhJ">
    <mxGraphModel dx="2171" dy="1006" grid="1" gridSize="10" guides="1" tooltips="1" connect="1" arrows="1" fold="1" page="1" pageScale="1" pageWidth="827" pageHeight="1169" math="0" shadow="0">
      <root>
        <mxCell id="0" />
        <mxCell id="1" parent="0" />
        <mxCell id="hSaf9Ormp26td6FxDZD1-1" value="&lt;font style=&quot;font-size: 15px;&quot;&gt;&lt;b&gt;root&lt;/b&gt;&lt;/font&gt;&lt;br&gt;defines style&lt;br&gt;includes navigation&lt;br&gt;includes all subpages" style="rounded=0;whiteSpace=wrap;html=1;fontSize=12;fillColor=#dae8fc;strokeColor=#6c8ebf;" vertex="1" parent="1">
          <mxGeometry x="270" y="230" width="236" height="80" as="geometry" />
        </mxCell>
        <mxCell id="hSaf9Ormp26td6FxDZD1-2" value="&lt;span style=&quot;font-size: 15px;&quot;&gt;&lt;b&gt;html&lt;/b&gt;&lt;/span&gt;" style="rounded=0;whiteSpace=wrap;html=1;fontSize=12;fillColor=#dae8fc;strokeColor=#6c8ebf;" vertex="1" parent="1">
          <mxGeometry x="140" y="110" width="80" height="30" as="geometry" />
        </mxCell>
        <mxCell id="hSaf9Ormp26td6FxDZD1-3" value="&lt;span style=&quot;font-size: 15px;&quot;&gt;&lt;b&gt;css&lt;/b&gt;&lt;/span&gt;" style="rounded=0;whiteSpace=wrap;html=1;fontSize=12;fillColor=#d5e8d4;strokeColor=#82b366;" vertex="1" parent="1">
          <mxGeometry x="140" y="60" width="80" height="30" as="geometry" />
        </mxCell>
        <mxCell id="hSaf9Ormp26td6FxDZD1-4" value="&lt;span style=&quot;font-size: 15px;&quot;&gt;&lt;b&gt;style.css&lt;/b&gt;&lt;/span&gt;" style="rounded=0;whiteSpace=wrap;html=1;fontSize=12;fillColor=#d5e8d4;strokeColor=#82b366;" vertex="1" parent="1">
          <mxGeometry x="506" y="255" width="110" height="30" as="geometry" />
        </mxCell>
        <mxCell id="hSaf9Ormp26td6FxDZD1-5" value="&lt;span style=&quot;font-size: 15px;&quot;&gt;&lt;b&gt;navigation&lt;/b&gt;&lt;/span&gt;" style="rounded=0;whiteSpace=wrap;html=1;fontSize=12;fillColor=#dae8fc;strokeColor=#6c8ebf;" vertex="1" parent="1">
          <mxGeometry x="-40" y="380" width="236" height="80" as="geometry" />
        </mxCell>
        <mxCell id="hSaf9Ormp26td6FxDZD1-12" style="edgeStyle=orthogonalEdgeStyle;rounded=0;orthogonalLoop=1;jettySize=auto;html=1;exitX=0.25;exitY=1;exitDx=0;exitDy=0;entryX=0;entryY=0.5;entryDx=0;entryDy=0;" edge="1" parent="1" source="hSaf9Ormp26td6FxDZD1-6" target="hSaf9Ormp26td6FxDZD1-9">
          <mxGeometry relative="1" as="geometry" />
        </mxCell>
        <mxCell id="hSaf9Ormp26td6FxDZD1-16" style="edgeStyle=orthogonalEdgeStyle;rounded=0;orthogonalLoop=1;jettySize=auto;html=1;exitX=0.25;exitY=1;exitDx=0;exitDy=0;entryX=0;entryY=0.5;entryDx=0;entryDy=0;" edge="1" parent="1" source="hSaf9Ormp26td6FxDZD1-6" target="hSaf9Ormp26td6FxDZD1-15">
          <mxGeometry relative="1" as="geometry" />
        </mxCell>
        <mxCell id="hSaf9Ormp26td6FxDZD1-6" value="&lt;span style=&quot;font-size: 15px;&quot;&gt;&lt;b&gt;Langlaufweekend&lt;/b&gt;&lt;/span&gt;" style="rounded=0;whiteSpace=wrap;html=1;fontSize=12;fillColor=#dae8fc;strokeColor=#6c8ebf;" vertex="1" parent="1">
          <mxGeometry x="570" y="380" width="236" height="80" as="geometry" />
        </mxCell>
        <mxCell id="hSaf9Ormp26td6FxDZD1-11" style="edgeStyle=orthogonalEdgeStyle;rounded=0;orthogonalLoop=1;jettySize=auto;html=1;exitX=0.25;exitY=1;exitDx=0;exitDy=0;entryX=0;entryY=0.5;entryDx=0;entryDy=0;" edge="1" parent="1" source="hSaf9Ormp26td6FxDZD1-7" target="hSaf9Ormp26td6FxDZD1-8">
          <mxGeometry relative="1" as="geometry" />
        </mxCell>
        <mxCell id="hSaf9Ormp26td6FxDZD1-14" style="edgeStyle=orthogonalEdgeStyle;rounded=0;orthogonalLoop=1;jettySize=auto;html=1;exitX=0.25;exitY=1;exitDx=0;exitDy=0;entryX=0;entryY=0.5;entryDx=0;entryDy=0;" edge="1" parent="1" source="hSaf9Ormp26td6FxDZD1-7" target="hSaf9Ormp26td6FxDZD1-13">
          <mxGeometry relative="1" as="geometry" />
        </mxCell>
        <mxCell id="hSaf9Ormp26td6FxDZD1-7" value="&lt;span style=&quot;font-size: 15px;&quot;&gt;&lt;b&gt;TriCamp&lt;/b&gt;&lt;/span&gt;" style="rounded=0;whiteSpace=wrap;html=1;fontSize=12;fillColor=#dae8fc;strokeColor=#6c8ebf;" vertex="1" parent="1">
          <mxGeometry x="270" y="380" width="236" height="80" as="geometry" />
        </mxCell>
        <mxCell id="hSaf9Ormp26td6FxDZD1-8" value="&lt;span style=&quot;font-size: 15px;&quot;&gt;&lt;b&gt;2024&lt;/b&gt;&lt;/span&gt;" style="rounded=0;whiteSpace=wrap;html=1;fontSize=12;fillColor=#dae8fc;strokeColor=#6c8ebf;" vertex="1" parent="1">
          <mxGeometry x="370" y="505" width="136" height="80" as="geometry" />
        </mxCell>
        <mxCell id="hSaf9Ormp26td6FxDZD1-9" value="&lt;span style=&quot;font-size: 15px;&quot;&gt;&lt;b&gt;2024&lt;/b&gt;&lt;/span&gt;" style="rounded=0;whiteSpace=wrap;html=1;fontSize=12;fillColor=#dae8fc;strokeColor=#6c8ebf;" vertex="1" parent="1">
          <mxGeometry x="670" y="500" width="136" height="80" as="geometry" />
        </mxCell>
        <mxCell id="hSaf9Ormp26td6FxDZD1-13" value="&lt;span style=&quot;font-size: 15px;&quot;&gt;&lt;b&gt;2025&lt;/b&gt;&lt;/span&gt;" style="rounded=0;whiteSpace=wrap;html=1;fontSize=12;fillColor=#dae8fc;strokeColor=#6c8ebf;" vertex="1" parent="1">
          <mxGeometry x="370" y="630" width="136" height="80" as="geometry" />
        </mxCell>
        <mxCell id="hSaf9Ormp26td6FxDZD1-15" value="&lt;span style=&quot;font-size: 15px;&quot;&gt;&lt;b&gt;2025&lt;/b&gt;&lt;/span&gt;" style="rounded=0;whiteSpace=wrap;html=1;fontSize=12;fillColor=#dae8fc;strokeColor=#6c8ebf;" vertex="1" parent="1">
          <mxGeometry x="670" y="630" width="136" height="80" as="geometry" />
        </mxCell>
      </root>
    </mxGraphModel>
  </diagram>
</mxfile>
